<svg xmlns="http://www.w3.org/2000/svg" viewBox="0 0 145.78 65.24"><defs><style>.cls-1{fill:#2f9ad6;}.cls-1,.cls-2{stroke:#2f9ad6;}.cls-1,.cls-2,.cls-3,.cls-4,.cls-5,.cls-6,.cls-7{stroke-miterlimit:10;}.cls-2{fill:#2e9ad5;}.cls-3,.cls-4,.cls-6{fill:none;}.cls-3,.cls-4,.cls-5,.cls-7{stroke:#6d6b6b;}.cls-3{stroke-width:1.4px;}.cls-4,.cls-5{stroke-width:2.4px;}.cls-5{fill:#fff;}.cls-6{stroke:#fdfefe;stroke-width:1.35px;}.cls-7{fill:#6d6b6b;stroke-width:1.2px;}</style></defs><title>logo_title</title><g id="Layer_2" data-name="Layer 2"><g id="Layer_1-2" data-name="Layer 1"><path class="cls-1" d="M10.91,23.34,18.69,35.1l1.76-11.55,5,.14L22.89,42.85l-5-.13L8,29.73l-1.11,13H1.22L3.81,23.34Z"/><path class="cls-1" d="M29.13,42.83l1.94-19.35H50l-.87,4.61-12.56,0-.85,10.1,13.41,0L48,42.83Zm9.31-11.36H49.09l-.8,4H41Z"/><path class="cls-1" d="M128.28,37.13c.82,1.62,5.23,1.62,5.23,1.62s4.42,0,5.23-1.62v-.41l4.35,1v1.11c-.41,4.34-9.58,4.34-9.58,4.34S123,44,122.64,39.64l-.38-12.76c.38-4.34,11.25-4,11.25-4s9.17,0,9.58,4.34v.83l-4.35,1.28v-.41c-.81-1.62-5.23-1.62-5.23-1.62s-4.41,0-5.23,1.62Z"/><path class="cls-2" d="M101.87,23l.07,4.3,8,.65.15,2.84-7.41.79-.81,11.77,5.74-.22V34.66l6.9,8.51h5.9l-7.31-9.91s4.13-1,4.51-3.56C117.65,28.88,115.47,22.7,101.87,23Z"/><polygon class="cls-2" points="83.68 23.44 93.86 23.44 93.86 28.19 85.96 29.05 85.3 32.49 95.41 33.13 98.32 43.31 93.03 43.36 91.48 37.04 85.77 36.68 82.57 42.98 76.39 43.06 83.68 23.44"/><polyline class="cls-2" points="60.79 42.91 68.99 42.88 68.35 28.42 75.89 28.02 76.99 23.23 55 23.23 54.22 28 61.64 28.28 61.68 30.81 65.92 30.79 65.92 35.8 61.68 35.83 61.18 43.09"/><path class="cls-3" d="M101.74,23.14l.07,4.29,8,.65.15,2.84-7.41.79-.81,11.78,5.74-.23.52-7.13,6.38,7.13h5.9L113,33.35s4.13-1,4.51-3.55C117.52,29,115.34,22.8,101.74,23.14Z"/><polygon class="cls-3" points="83.55 23.33 93.73 23.33 93.73 28.07 85.83 28.93 85.35 31.63 95.46 32.26 98.19 43.19 92.9 43.25 91.35 36.92 85.64 36.56 82.44 42.87 76.26 42.94 83.55 23.33"/><polyline class="cls-3" points="60.32 43.01 68.86 42.97 68.22 28.51 75.76 28.12 76.86 23.33 54.87 23.33 54.09 28.1 61.51 28.38 61.55 30.91 65.2 30.88 65.2 35.9 61.55 35.92 61.15 43.18"/><line class="cls-4" x1="18.48" y1="43.86" x2="18.51" y2="55.71"/><line class="cls-4" x1="90.74" y1="23.81" x2="90.69" y2="12.21"/><polyline class="cls-4" points="38.38 64.46 38.7 60.74 48.76 60.36 49.24 51.86 40.68 52 40.67 44.13"/><polyline class="cls-4" points="57.21 64.75 57.24 62.4 65.98 62.23 66.25 43.92"/><polyline class="cls-4" points="66.72 58.91 93.31 58.91 93.65 44.26"/><polyline class="cls-4" points="45.44 23.82 45.53 20.46 34.84 20.67 34.66 0.01"/><polyline class="cls-4" points="1.73 55.28 29.05 55.71 29.01 64.81"/><polyline class="cls-4" points="7.55 9.88 7.57 5.66 2.16 5.66"/><polyline class="cls-4" points="72.65 11.88 97.67 11.92 97.8 23.44 97.98 30.17 104.63 30.17 104.71 28"/><polyline class="cls-4" points="103.01 44.25 103.1 58.1 115.28 58.14 115.29 44.2"/><polyline class="cls-4" points="48.69 35.01 53.54 35.1 52.99 47.92 60.16 47.92 60.27 62.44"/><polyline class="cls-4" points="123.84 63.68 123.86 59.02 126.58 58.82 126.87 51.58 134.5 51.62 134.53 60.08 140.06 60.04 140.2 46.78 145.45 46.56"/><polyline class="cls-4" points="107.21 18.16 107.2 5.22 93.6 5.12 93.6 0.91"/><line class="cls-4" x1="126.92" y1="43.65" x2="126.87" y2="51.58"/><line class="cls-5" x1="117.75" y1="30.2" x2="122.26" y2="27.72"/><polyline class="cls-4" points="107.21 18.16 107.21 21.91 128.24 21.95 127.97 2.26 137.43 2.32 137.61 19.57 144.56 19.02"/><polyline class="cls-4" points="58.2 23.63 58.16 6.49 72.29 6.68"/><polyline class="cls-4" points="106.89 15.71 117.74 15.9 117.6 6.08 128.01 6.31"/><line class="cls-4" x1="81.93" y1="65.23" x2="81.74" y2="44.51"/><line class="cls-4" x1="6.24" y1="43.62" x2="6.16" y2="46.95"/><polyline class="cls-4" points="9.79 23.63 9.82 16.85 4.19 16.85 4.36 9.76 34.75 9.91"/><polyline class="cls-4" points="20.78 24.06 20.78 19.02 29.27 19.02 29.44 9.88"/><polyline class="cls-4" points="72.29 0.23 72.52 20.72 81.08 21.02 77.36 32.54 73.97 32.89 73.99 28.77"/><line class="cls-4" x1="104.63" y1="30.17" x2="104.71" y2="28"/><line class="cls-4" x1="68.68" y1="38.9" x2="78.26" y2="38.49"/><polyline class="cls-4" points="128.83 36.39 132.56 36.39 132.59 34.17 143.04 34.17 143.09 28.06"/><line class="cls-5" x1="92.63" y1="52" x2="102.6" y2="52"/><line class="cls-4" x1="25.29" y1="27.6" x2="30.48" y2="29.19"/><line class="cls-4" x1="145.73" y1="34.2" x2="143.39" y2="34.1"/><polyline class="cls-4" points="26.42 54.66 26.47 43.21 22.89 42.85"/><polyline class="cls-4" points="29.05 58.08 33.38 58.11 33.44 52.12 40.68 52"/><polyline class="cls-4" points="34.71 4.82 46.41 4.68 46.48 11.88 58.16 11.38"/><polyline class="cls-4" points="1.24 46.95 13.35 46.95 12.54 41.41 7.3 38.94"/><polyline class="cls-6" points="4.23 38.01 4.23 41.22 6.46 43.07"/><polyline class="cls-6" points="7.09 38.01 4.23 38.01 4.73 28.99"/><polyline class="cls-6" points="9.14 23.15 8.84 25.99 5.03 25.98 4.73 28.99 10.81 29.42 17.69 37.24 17.84 43.33"/><polyline class="cls-6" points="22.44 43.23 21.73 38.78 17.02 38.81"/><polyline class="cls-6" points="20.43 24.09 21.57 28 20.53 33.45 22.4 33.55 21.74 38.95 17.84 38.73"/><line class="cls-6" x1="21.5" y1="27.74" x2="24.75" y2="28.26"/><polyline class="cls-6" points="44.87 24.04 44.87 26.02 33.38 26.22 33.38 29.24"/><polyline class="cls-6" points="33.06 41.48 33.38 29.24 30.48 29.19"/><polyline class="cls-6" points="40.5 31.86 41.97 33.83 46.45 34.28 48.58 35.06"/><line class="cls-6" x1="40.13" y1="40.88" x2="32.53" y2="40.75"/><polyline class="cls-6" points="40.27 43.37 40.36 40.92 45.31 41.01 48.38 39.07"/><polyline class="cls-6" points="65.57 43.68 65.71 38.9 69.05 39.41"/><line class="cls-6" x1="65.57" y1="36.56" x2="65.57" y2="38.85"/><polyline class="cls-6" points="65.41 31.24 65.33 26.29 73.48 26.38 73.34 28.29"/><polyline class="cls-6" points="57.38 23.84 57.15 26.31 65.57 26.29"/><polyline class="cls-6" points="77.88 38.01 81.18 38.83 81.18 43.22"/><line class="cls-6" x1="83.42" y1="30.26" x2="81.18" y2="38.83"/><polyline class="cls-6" points="93.31 43.72 95.15 41.03 93.89 35.11 82.65 34.49"/><polyline class="cls-6" points="83.42 30.26 84.42 26.73 90.08 26.58 90.08 23.99"/><polyline class="cls-6" points="103.97 27.92 104.33 25.7 106.53 26.03"/><polyline class="cls-6" points="111.39 33.31 112.14 29.17 117.2 30.08"/><line class="cls-6" x1="104.65" y1="33.83" x2="111.39" y2="33.83"/><polyline class="cls-6" points="102.21 43.77 104.65 41.3 104.65 33.18"/><polyline class="cls-6" points="111.39 33.31 111.4 37.85 115.14 39.36 114.4 43.55"/><polyline class="cls-6" points="121.81 27.97 125.77 28.19 125.77 35.87 127.83 36.03"/><polyline class="cls-6" points="121.81 36.1 123.34 35.99 125.01 35.87 126.91 40.64 125.9 43.22"/><polyline class="cls-6" points="126.91 40.91 131.98 40.98 131.88 42.56 137.19 42.28 142.86 38.43"/><polyline class="cls-6" points="125.77 28.92 126.12 25.96 138.73 26.09 142.86 28.54"/><polyline class="cls-6" points="112.14 29.17 110.99 26.62 106.43 26.02"/><circle class="cls-7" cx="142.96" cy="27.72" r="1.09"/><circle class="cls-7" cx="126.24" cy="43.22" r="1.09"/><circle class="cls-7" cx="122.27" cy="27.72" r="1.09"/><circle class="cls-7" cx="128.34" cy="35.95" r="1.09"/><circle class="cls-7" cx="117.2" cy="29.99" r="1.09"/><circle class="cls-7" cx="104.41" cy="27.72" r="1.09"/><circle class="cls-7" cx="90.8" cy="23.25" r="1.09"/><circle class="cls-7" cx="102.82" cy="43.22" r="1.09"/><circle class="cls-7" cx="93.55" cy="43.31" r="1.09"/><circle class="cls-7" cx="81.64" cy="43.31" r="1.09"/><circle class="cls-7" cx="78.34" cy="37.61" r="1.09"/><circle class="cls-7" cx="68.64" cy="38.84" r="1.09"/><circle class="cls-7" cx="66.04" cy="43.23" r="1.09"/><circle class="cls-7" cx="73.8" cy="28.21" r="1.09"/><circle class="cls-7" cx="48.85" cy="38.67" r="1.09"/><circle class="cls-7" cx="45.33" cy="23.25" r="1.09"/><circle class="cls-7" cx="30.58" cy="28.78" r="1.09"/><circle class="cls-7" cx="20.58" cy="23.59" r="1.09"/><circle class="cls-7" cx="25.21" cy="27.6" r="1.09"/><circle class="cls-7" cx="22.9" cy="42.53" r="1.09"/><circle class="cls-7" cx="18.3" cy="43" r="1.09"/><circle class="cls-7" cx="7.43" cy="38.06" r="1.09"/><circle class="cls-7" cx="6.69" cy="42.93" r="1.09"/><circle class="cls-7" cx="9.67" cy="23.33" r="1.09"/><circle class="cls-7" cx="40.73" cy="43.32" r="1.09"/><circle class="cls-7" cx="48.35" cy="34.77" r="1.09"/><circle class="cls-7" cx="57.96" cy="23.18" r="1.09"/><circle class="cls-7" cx="115.1" cy="43.45" r="1.09"/><circle class="cls-7" cx="122.21" cy="36.35" r="1.09"/><circle class="cls-7" cx="143.54" cy="37.61" r="1.09"/></g><g id="Layer_2-2" data-name="Layer 2"><path class="cls-3" d="M10.78,23.43l7.64,11.2,1.19-11,5.68.17L22.76,42.94l-5-.12L8.05,31.33,6.78,42.78l-6-.1L3.39,23.33Z"/><path class="cls-3" d="M29,42.93l1.94-19.35H49.83L49,28.19,36.4,28.14l-.85,10.1,13.41,0-1.07,4.64Zm9.77-11.38,10.19,0-.8,4-6.88,0Z"/><path class="cls-3" d="M128.15,37.22c.82,1.63,5.23,1.63,5.23,1.63s4.42,0,5.23-1.63v-.4l4.35,1v1.11c-.41,4.34-9.58,4.34-9.58,4.34s-10.49.81-10.87-3.53L122.13,27c.38-4.34,11.25-4,11.25-4s9.17,0,9.58,4.34v.83l-4.35,1.27V29c-.81-1.63-5.23-1.63-5.23-1.63s-4.41,0-5.23,1.63Z"/></g></g></svg>